<svg xmlns="http://www.w3.org/2000/svg" xmlns:xlink="http://www.w3.org/1999/xlink" width="480" zoomAndPan="magnify" viewBox="0 0 360 86.249997" height="115" preserveAspectRatio="xMidYMid meet" version="1.0"><defs><g/><clipPath id="7cddcda487"><path d="M 1.550781 0 L 358.449219 0 L 358.449219 85.507812 L 1.550781 85.507812 Z M 1.550781 0 " clip-rule="nonzero"/></clipPath><clipPath id="e54c248715"><path d="M 1.550781 27 L 27 27 L 27 59 L 1.550781 59 Z M 1.550781 27 " clip-rule="nonzero"/></clipPath><clipPath id="11347c2d2c"><path d="M 123 68 L 358.449219 68 L 358.449219 71 L 123 71 Z M 123 68 " clip-rule="nonzero"/></clipPath><clipPath id="d7a3677966"><path d="M 1.550781 14 L 237 14 L 237 18 L 1.550781 18 Z M 1.550781 14 " clip-rule="nonzero"/></clipPath></defs><g clip-path="url(#7cddcda487)"><path fill="#ffffff" d="M 1.550781 0 L 358.449219 0 L 358.449219 85.507812 L 1.550781 85.507812 Z M 1.550781 0 " fill-opacity="1" fill-rule="nonzero"/><path fill="#2c2c2c" d="M 1.550781 0 L 358.449219 0 L 358.449219 85.507812 L 1.550781 85.507812 Z M 1.550781 0 " fill-opacity="1" fill-rule="nonzero"/></g><g clip-path="url(#e54c248715)"><g fill="#ffffff" fill-opacity="1"><g transform="translate(1.55173, 58.008901)"><g><path d="M 10.84375 -27.59375 L 0.171875 -27.59375 L 0.171875 -30.359375 L 24.71875 -30.359375 L 24.71875 -27.59375 L 14.046875 -27.59375 L 14.046875 0 L 10.84375 0 Z M 10.84375 -27.59375 "/></g></g></g></g><g fill="#ffffff" fill-opacity="1"><g transform="translate(26.44907, 58.008901)"><g><path d="M 7.25 -18.34375 C 7.96875 -19.875 9.039062 -21.03125 10.46875 -21.8125 C 11.90625 -22.59375 13.675781 -22.984375 15.78125 -22.984375 L 15.78125 -20 L 15.046875 -20.046875 C 12.648438 -20.046875 10.769531 -19.304688 9.40625 -17.828125 C 8.050781 -16.347656 7.375 -14.28125 7.375 -11.625 L 7.375 0 L 4.296875 0 L 4.296875 -22.8125 L 7.25 -22.8125 Z M 7.25 -18.34375 "/></g></g></g><g fill="#ffffff" fill-opacity="1"><g transform="translate(43.842507, 58.008901)"><g><path d="M 23.46875 -22.8125 L 12.0625 2.734375 C 11.132812 4.867188 10.0625 6.382812 8.84375 7.28125 C 7.632812 8.175781 6.175781 8.625 4.46875 8.625 C 3.363281 8.625 2.332031 8.453125 1.375 8.109375 C 0.425781 7.765625 -0.390625 7.242188 -1.078125 6.546875 L 0.34375 4.25 C 1.5 5.40625 2.890625 5.984375 4.515625 5.984375 C 5.554688 5.984375 6.441406 5.691406 7.171875 5.109375 C 7.910156 4.535156 8.597656 3.554688 9.234375 2.171875 L 10.234375 -0.046875 L 0.046875 -22.8125 L 3.25 -22.8125 L 11.84375 -3.421875 L 20.421875 -22.8125 Z M 23.46875 -22.8125 "/></g></g></g><g fill="#ffffff" fill-opacity="1"><g transform="translate(67.351839, 58.008901)"><g><path d="M 30.1875 -30.359375 L 16.75 0 L 13.578125 0 L 0.125 -30.359375 L 3.59375 -30.359375 L 15.21875 -3.984375 L 26.9375 -30.359375 Z M 30.1875 -30.359375 "/></g></g></g><g fill="#ffffff" fill-opacity="1"><g transform="translate(97.627698, 58.008901)"><g><path d="M 24.15625 -10.453125 L 5.078125 -10.453125 C 5.242188 -8.078125 6.148438 -6.160156 7.796875 -4.703125 C 9.453125 -3.242188 11.535156 -2.515625 14.046875 -2.515625 C 15.460938 -2.515625 16.765625 -2.765625 17.953125 -3.265625 C 19.140625 -3.773438 20.164062 -4.523438 21.03125 -5.515625 L 22.765625 -3.515625 C 21.753906 -2.296875 20.488281 -1.367188 18.96875 -0.734375 C 17.457031 -0.0976562 15.789062 0.21875 13.96875 0.21875 C 11.625 0.21875 9.546875 -0.28125 7.734375 -1.28125 C 5.929688 -2.28125 4.523438 -3.660156 3.515625 -5.421875 C 2.503906 -7.179688 2 -9.175781 2 -11.40625 C 2 -13.632812 2.484375 -15.628906 3.453125 -17.390625 C 4.421875 -19.160156 5.75 -20.535156 7.4375 -21.515625 C 9.125 -22.492188 11.023438 -22.984375 13.140625 -22.984375 C 15.253906 -22.984375 17.148438 -22.492188 18.828125 -21.515625 C 20.503906 -20.535156 21.816406 -19.171875 22.765625 -17.421875 C 23.722656 -15.671875 24.203125 -13.664062 24.203125 -11.40625 Z M 13.140625 -20.34375 C 10.941406 -20.34375 9.097656 -19.640625 7.609375 -18.234375 C 6.117188 -16.835938 5.273438 -15.007812 5.078125 -12.75 L 21.25 -12.75 C 21.050781 -15.007812 20.207031 -16.835938 18.71875 -18.234375 C 17.226562 -19.640625 15.367188 -20.34375 13.140625 -20.34375 Z M 13.140625 -20.34375 "/></g></g></g><g fill="#ffffff" fill-opacity="1"><g transform="translate(123.826294, 58.008901)"><g><path d="M 15.921875 -22.984375 C 18.785156 -22.984375 21.0625 -22.148438 22.75 -20.484375 C 24.4375 -18.828125 25.28125 -16.410156 25.28125 -13.234375 L 25.28125 0 L 22.203125 0 L 22.203125 -12.921875 C 22.203125 -15.296875 21.609375 -17.101562 20.421875 -18.34375 C 19.242188 -19.59375 17.554688 -20.21875 15.359375 -20.21875 C 12.898438 -20.21875 10.953125 -19.484375 9.515625 -18.015625 C 8.085938 -16.554688 7.375 -14.539062 7.375 -11.96875 L 7.375 0 L 4.296875 0 L 4.296875 -22.8125 L 7.25 -22.8125 L 7.25 -18.609375 C 8.082031 -19.992188 9.242188 -21.066406 10.734375 -21.828125 C 12.222656 -22.597656 13.953125 -22.984375 15.921875 -22.984375 Z M 15.921875 -22.984375 "/></g></g></g><g fill="#ffffff" fill-opacity="1"><g transform="translate(153.191267, 58.008901)"><g><path d="M 16.3125 -1.390625 C 15.726562 -0.867188 15.007812 -0.46875 14.15625 -0.1875 C 13.300781 0.0820312 12.414062 0.21875 11.5 0.21875 C 9.351562 0.21875 7.703125 -0.359375 6.546875 -1.515625 C 5.390625 -2.671875 4.8125 -4.304688 4.8125 -6.421875 L 4.8125 -20.21875 L 0.734375 -20.21875 L 0.734375 -22.8125 L 4.8125 -22.8125 L 4.8125 -27.796875 L 7.890625 -27.796875 L 7.890625 -22.8125 L 14.828125 -22.8125 L 14.828125 -20.21875 L 7.890625 -20.21875 L 7.890625 -6.59375 C 7.890625 -5.226562 8.226562 -4.191406 8.90625 -3.484375 C 9.59375 -2.773438 10.570312 -2.421875 11.84375 -2.421875 C 12.476562 -2.421875 13.09375 -2.519531 13.6875 -2.71875 C 14.28125 -2.925781 14.789062 -3.21875 15.21875 -3.59375 Z M 16.3125 -1.390625 "/></g></g></g><g fill="#ffffff" fill-opacity="1"><g transform="translate(170.801585, 58.008901)"><g><path d="M 24.859375 -22.8125 L 24.859375 0 L 21.90625 0 L 21.90625 -4.15625 C 21.09375 -2.769531 19.976562 -1.691406 18.5625 -0.921875 C 17.144531 -0.160156 15.523438 0.21875 13.703125 0.21875 C 10.722656 0.21875 8.375 -0.609375 6.65625 -2.265625 C 4.9375 -3.929688 4.078125 -6.367188 4.078125 -9.578125 L 4.078125 -22.8125 L 7.15625 -22.8125 L 7.15625 -9.890625 C 7.15625 -7.492188 7.75 -5.671875 8.9375 -4.421875 C 10.125 -3.179688 11.816406 -2.5625 14.015625 -2.5625 C 16.410156 -2.5625 18.300781 -3.289062 19.6875 -4.75 C 21.082031 -6.207031 21.78125 -8.238281 21.78125 -10.84375 L 21.78125 -22.8125 Z M 24.859375 -22.8125 "/></g></g></g><g fill="#ffffff" fill-opacity="1"><g transform="translate(199.993064, 58.008901)"><g><path d="M 7.25 -18.34375 C 7.96875 -19.875 9.039062 -21.03125 10.46875 -21.8125 C 11.90625 -22.59375 13.675781 -22.984375 15.78125 -22.984375 L 15.78125 -20 L 15.046875 -20.046875 C 12.648438 -20.046875 10.769531 -19.304688 9.40625 -17.828125 C 8.050781 -16.347656 7.375 -14.28125 7.375 -11.625 L 7.375 0 L 4.296875 0 L 4.296875 -22.8125 L 7.25 -22.8125 Z M 7.25 -18.34375 "/></g></g></g><g fill="#ffffff" fill-opacity="1"><g transform="translate(217.386501, 58.008901)"><g><path d="M 24.15625 -10.453125 L 5.078125 -10.453125 C 5.242188 -8.078125 6.148438 -6.160156 7.796875 -4.703125 C 9.453125 -3.242188 11.535156 -2.515625 14.046875 -2.515625 C 15.460938 -2.515625 16.765625 -2.765625 17.953125 -3.265625 C 19.140625 -3.773438 20.164062 -4.523438 21.03125 -5.515625 L 22.765625 -3.515625 C 21.753906 -2.296875 20.488281 -1.367188 18.96875 -0.734375 C 17.457031 -0.0976562 15.789062 0.21875 13.96875 0.21875 C 11.625 0.21875 9.546875 -0.28125 7.734375 -1.28125 C 5.929688 -2.28125 4.523438 -3.660156 3.515625 -5.421875 C 2.503906 -7.179688 2 -9.175781 2 -11.40625 C 2 -13.632812 2.484375 -15.628906 3.453125 -17.390625 C 4.421875 -19.160156 5.75 -20.535156 7.4375 -21.515625 C 9.125 -22.492188 11.023438 -22.984375 13.140625 -22.984375 C 15.253906 -22.984375 17.148438 -22.492188 18.828125 -21.515625 C 20.503906 -20.535156 21.816406 -19.171875 22.765625 -17.421875 C 23.722656 -15.671875 24.203125 -13.664062 24.203125 -11.40625 Z M 13.140625 -20.34375 C 10.941406 -20.34375 9.097656 -19.640625 7.609375 -18.234375 C 6.117188 -16.835938 5.273438 -15.007812 5.078125 -12.75 L 21.25 -12.75 C 21.050781 -15.007812 20.207031 -16.835938 18.71875 -18.234375 C 17.226562 -19.640625 15.367188 -20.34375 13.140625 -20.34375 Z M 13.140625 -20.34375 "/></g></g></g><g fill="#ffffff" fill-opacity="1"><g transform="translate(243.585096, 58.008901)"><g><path d="M 10.40625 0.21875 C 8.5625 0.21875 6.789062 -0.046875 5.09375 -0.578125 C 3.40625 -1.117188 2.082031 -1.796875 1.125 -2.609375 L 2.515625 -5.03125 C 3.472656 -4.28125 4.671875 -3.664062 6.109375 -3.1875 C 7.554688 -2.707031 9.0625 -2.46875 10.625 -2.46875 C 12.707031 -2.46875 14.25 -2.789062 15.25 -3.4375 C 16.25 -4.09375 16.75 -5.015625 16.75 -6.203125 C 16.75 -7.035156 16.472656 -7.691406 15.921875 -8.171875 C 15.367188 -8.648438 14.671875 -9.007812 13.828125 -9.25 C 12.992188 -9.5 11.882812 -9.738281 10.5 -9.96875 C 8.644531 -10.320312 7.15625 -10.675781 6.03125 -11.03125 C 4.90625 -11.394531 3.941406 -12.007812 3.140625 -12.875 C 2.347656 -13.75 1.953125 -14.953125 1.953125 -16.484375 C 1.953125 -18.390625 2.742188 -19.945312 4.328125 -21.15625 C 5.921875 -22.375 8.132812 -22.984375 10.96875 -22.984375 C 12.445312 -22.984375 13.921875 -22.785156 15.390625 -22.390625 C 16.867188 -22.003906 18.085938 -21.492188 19.046875 -20.859375 L 17.703125 -18.390625 C 15.816406 -19.691406 13.570312 -20.34375 10.96875 -20.34375 C 9.007812 -20.34375 7.53125 -19.992188 6.53125 -19.296875 C 5.53125 -18.609375 5.03125 -17.695312 5.03125 -16.5625 C 5.03125 -15.695312 5.3125 -15.003906 5.875 -14.484375 C 6.4375 -13.960938 7.132812 -13.578125 7.96875 -13.328125 C 8.8125 -13.085938 9.972656 -12.835938 11.453125 -12.578125 C 13.273438 -12.234375 14.734375 -11.882812 15.828125 -11.53125 C 16.929688 -11.1875 17.875 -10.59375 18.65625 -9.75 C 19.4375 -8.914062 19.828125 -7.765625 19.828125 -6.296875 C 19.828125 -4.296875 18.992188 -2.707031 17.328125 -1.53125 C 15.660156 -0.363281 13.351562 0.21875 10.40625 0.21875 Z M 10.40625 0.21875 "/></g></g></g><g fill="#ffffff" fill-opacity="1"><g transform="translate(264.795556, 58.008901)"><g/></g></g><g fill="#ffffff" fill-opacity="1"><g transform="translate(276.159835, 58.008901)"><g><path d="M 4.9375 -30.359375 L 8.15625 -30.359375 L 8.15625 -2.78125 L 25.15625 -2.78125 L 25.15625 0 L 4.9375 0 Z M 4.9375 -30.359375 "/></g></g></g><g fill="#ffffff" fill-opacity="1"><g transform="translate(301.7078, 58.008901)"><g><path d="M 4.9375 -30.359375 L 8.15625 -30.359375 L 8.15625 -2.78125 L 25.15625 -2.78125 L 25.15625 0 L 4.9375 0 Z M 4.9375 -30.359375 "/></g></g></g><g fill="#ffffff" fill-opacity="1"><g transform="translate(327.255764, 58.008901)"><g><path d="M 18.125 0.265625 C 15.125 0.265625 12.414062 -0.398438 10 -1.734375 C 7.582031 -3.066406 5.6875 -4.910156 4.3125 -7.265625 C 2.9375 -9.617188 2.25 -12.257812 2.25 -15.1875 C 2.25 -18.101562 2.9375 -20.738281 4.3125 -23.09375 C 5.6875 -25.445312 7.585938 -27.289062 10.015625 -28.625 C 12.441406 -29.957031 15.160156 -30.625 18.171875 -30.625 C 20.429688 -30.625 22.515625 -30.25 24.421875 -29.5 C 26.328125 -28.75 27.945312 -27.648438 29.28125 -26.203125 L 27.234375 -24.15625 C 24.867188 -26.5625 21.878906 -27.765625 18.265625 -27.765625 C 15.859375 -27.765625 13.671875 -27.210938 11.703125 -26.109375 C 9.742188 -25.015625 8.207031 -23.507812 7.09375 -21.59375 C 5.976562 -19.6875 5.421875 -17.550781 5.421875 -15.1875 C 5.421875 -12.8125 5.976562 -10.671875 7.09375 -8.765625 C 8.207031 -6.859375 9.742188 -5.351562 11.703125 -4.25 C 13.671875 -3.15625 15.859375 -2.609375 18.265625 -2.609375 C 21.898438 -2.609375 24.890625 -3.820312 27.234375 -6.25 L 29.28125 -4.203125 C 27.945312 -2.753906 26.316406 -1.644531 24.390625 -0.875 C 22.472656 -0.113281 20.382812 0.265625 18.125 0.265625 Z M 18.125 0.265625 "/></g></g></g><g clip-path="url(#11347c2d2c)"><path stroke-linecap="butt" transform="matrix(0.743534, 0, 0, 0.743534, 124.723421, 68.580806)" fill="none" stroke-linejoin="miter" d="M -0.00102828 1.498931 L 314.344284 1.498931 " stroke="#ffffff" stroke-width="3" stroke-opacity="1" stroke-miterlimit="4"/></g><g clip-path="url(#d7a3677966)"><path stroke-linecap="butt" transform="matrix(0.743534, 0, 0, 0.743534, 1.55173, 14.843757)" fill="none" stroke-linejoin="miter" d="M -0.00127535 1.502527 L 314.344037 1.502527 " stroke="#ffffff" stroke-width="3" stroke-opacity="1" stroke-miterlimit="4"/></g></svg>